# xmcd
#
# Track frame offsets:
#       150
#       14848
#       30173
#       44054
#       58216
#       76392
#       92926
#       110484
#       128702
#       148497
#       166847
#       186766
#
# Disc length: 2888 seconds
#
# Revision: 7
# Processed by: cddbd v1.5.1PL2 Copyright (c) Steve Scherf et al.
# Submitted via: WaveLab 4.01
#
DISCID=ab0b460c
DTITLE=Wolfgang Petry - typisch
DYEAR=2004
DGENRE=
TTITLE0=Titel 01
TTITLE1=Titel 02
TTITLE2=Titel 03
TTITLE3=Titel 04
TTITLE4=Titel 05
TTITLE5=Titel 06
TTITLE6=Titel 07
TTITLE7=Titel 08
TTITLE8=Titel 09
TTITLE9=Titel 10
TTITLE10=Titel 11
TTITLE11=Titel 12
EXTD=
EXTT0=
EXTT1=
EXTT2=
EXTT3=
EXTT4=
EXTT5=
EXTT6=
EXTT7=
EXTT8=
EXTT9=
EXTT10=
EXTT11=
PLAYORDER=
